<svg width="12" height="12" viewBox="0 0 12 12" fill="none" xmlns="http://www.w3.org/2000/svg">
<g clip-path="url(#clip0_6277_2853)">
<path d="M0.844126 10.5909C0.937246 10.7026 1.0893 10.7465 1.22693 10.7011L2.74035 10.211L3.17533 11.7413C3.21503 11.8809 3.33557 11.9824 3.47997 11.9979C3.49261 11.9993 3.50543 12 3.51807 12C3.64823 12 3.76966 11.9284 3.83215 11.8114L5.66695 8.37402C5.79319 8.38542 5.92085 8.39236 6.04976 8.39236C6.14644 8.39236 6.24187 8.38791 6.33695 8.38132L8.16784 11.8114C8.23033 11.9282 8.35158 12 8.48191 12C8.49456 12 8.50738 11.9993 8.52002 11.9979C8.66459 11.9824 8.78495 11.8809 8.82466 11.7413L9.25946 10.211L10.7731 10.7011C10.9109 10.7465 11.0627 10.7026 11.1559 10.5909C11.249 10.4796 11.2652 10.3228 11.1968 10.1948L9.3654 6.76356C9.91681 6.05333 10.246 5.1629 10.246 4.19627C10.246 1.88234 8.36369 0 6.04994 0C3.73618 0 1.85367 1.88234 1.85367 4.19645C1.85367 5.12836 2.15956 5.99012 2.67554 6.68736L0.803174 10.1948C0.734803 10.3228 0.751006 10.4796 0.844126 10.5909ZM9.19447 9.44125C9.10206 9.41116 9.00218 9.42006 8.91689 9.466L8.83107 9.51194C8.74578 9.55752 8.68275 9.63568 8.6564 9.72862L8.38096 10.6979L7.08173 8.26381C7.75031 8.09413 8.35514 7.76349 8.85279 7.31587L10.1534 9.75195L9.19447 9.44125ZM6.04994 0.712198C7.97091 0.712198 9.53383 2.27512 9.53383 4.19627C9.53383 6.11725 7.97091 7.67999 6.04994 7.67999C4.12896 7.67999 2.56604 6.11725 2.56604 4.19627C2.56586 2.27512 4.12896 0.712198 6.04994 0.712198ZM3.18049 7.25374C3.66924 7.71275 4.26731 8.05585 4.93143 8.23977L3.61938 10.6977L3.34376 9.72844C3.31741 9.63568 3.25438 9.55752 3.16945 9.51194L3.08381 9.466C2.99852 9.42024 2.89828 9.41116 2.80587 9.44107L1.8469 9.75159L3.18049 7.25374Z" fill="black"/>
</g>
<defs>
<clipPath id="clip0_6277_2853">
<rect width="12" height="12" fill="white"/>
</clipPath>
</defs>
</svg>
