<svg width="12" height="12" viewBox="0 0 12 12" fill="none" xmlns="http://www.w3.org/2000/svg">
<g clip-path="url(#clip0_6354_1686)">
<path fill-rule="evenodd" clip-rule="evenodd" d="M8.125 3.5C8.125 4.6736 7.1736 5.625 6 5.625C4.8264 5.625 3.875 4.6736 3.875 3.5C3.875 2.3264 4.8264 1.375 6 1.375C7.1736 1.375 8.125 2.3264 8.125 3.5ZM8.5 3.5C8.5 4.88071 7.3807 6 6 6C4.61929 6 3.5 4.88071 3.5 3.5C3.5 2.11929 4.61929 1 6 1C7.3807 1 8.5 2.11929 8.5 3.5ZM1.375 8.75C1.375 7.9906 1.99061 7.375 2.75 7.375H9.25C10.0094 7.375 10.625 7.9906 10.625 8.75V10C10.625 10.3452 10.3452 10.625 10 10.625H2C1.65482 10.625 1.375 10.3452 1.375 10V8.75ZM1 8.75C1 7.7835 1.7835 7 2.75 7H9.25C10.2165 7 11 7.7835 11 8.75V10C11 10.5523 10.5523 11 10 11H2C1.44771 11 1 10.5523 1 10V8.75Z" fill="black" stroke="black" stroke-width="0.6"/>
</g>
<defs>
<clipPath id="clip0_6354_1686">
<rect width="12" height="12" fill="white"/>
</clipPath>
</defs>
</svg>
