<svg width="14" height="13" viewBox="0 0 14 13" fill="none" xmlns="http://www.w3.org/2000/svg">
<path d="M9.42802 0.5H4.57198C2.59923 0.5 1 2.09923 1 4.07198V8.92802C1 10.9008 2.59923 12.5 4.57198 12.5H9.42802C11.4008 12.5 13 10.9008 13 8.92802V4.07198C13 2.09923 11.4008 0.5 9.42802 0.5Z" stroke="black" stroke-width="0.8" stroke-linecap="round" stroke-linejoin="round"/>
<path d="M7 9.16667C8.47276 9.16667 9.66667 7.97276 9.66667 6.5C9.66667 5.02724 8.47276 3.83333 7 3.83333C5.52725 3.83333 4.33334 5.02724 4.33334 6.5C4.33334 7.97276 5.52725 9.16667 7 9.16667Z" stroke="black" stroke-width="0.8" stroke-linecap="round" stroke-linejoin="round"/>
<path d="M10.2766 3.83458C10.6958 3.83458 11.0355 3.49479 11.0355 3.07564C11.0355 2.65649 10.6958 2.31669 10.2766 2.31669C9.85745 2.31669 9.51766 2.65649 9.51766 3.07564C9.51766 3.49479 9.85745 3.83458 10.2766 3.83458Z" stroke="black" stroke-width="0.8" stroke-linecap="round" stroke-linejoin="round"/>
</svg>
