<svg width="14" height="14" viewBox="0 0 14 14" fill="none" xmlns="http://www.w3.org/2000/svg">
<path d="M7 12.7656C10.1843 12.7656 12.7656 10.1843 12.7656 7C12.7656 3.81573 10.1843 1.23438 7 1.23438C3.81573 1.23438 1.23438 3.81573 1.23438 7C1.23438 10.1843 3.81573 12.7656 7 12.7656Z" stroke="black" stroke-width="0.8" stroke-linecap="round" stroke-linejoin="round"/>
<path d="M7 2.48781V1.23438" stroke="black" stroke-width="0.8" stroke-linecap="round" stroke-linejoin="round"/>
<path d="M7 12.7652V11.5117" stroke="black" stroke-width="0.8" stroke-linecap="round" stroke-linejoin="round"/>
<path d="M10.1904 3.80926L11.0768 2.92285" stroke="black" stroke-width="0.8" stroke-linecap="round" stroke-linejoin="round"/>
<path d="M2.92285 11.0768L3.80926 10.1904" stroke="black" stroke-width="0.8" stroke-linecap="round" stroke-linejoin="round"/>
<path d="M11.5117 7H12.7652" stroke="black" stroke-width="0.8" stroke-linecap="round" stroke-linejoin="round"/>
<path d="M1.23438 7H2.48781" stroke="black" stroke-width="0.8" stroke-linecap="round" stroke-linejoin="round"/>
<path d="M10.1904 10.1904L11.0768 11.0768" stroke="black" stroke-width="0.8" stroke-linecap="round" stroke-linejoin="round"/>
<path d="M2.92285 2.92285L3.80926 3.80926" stroke="black" stroke-width="0.8" stroke-linecap="round" stroke-linejoin="round"/>
<path d="M7.00043 3.99219V6.74961L4.1748 7.93508" stroke="black" stroke-width="0.8" stroke-linecap="round" stroke-linejoin="round"/>
</svg>
