<svg width="14" height="13" viewBox="0 0 14 13" fill="none" xmlns="http://www.w3.org/2000/svg">
<path fill-rule="evenodd" clip-rule="evenodd" d="M2.42857 1.07143C1.95518 1.07143 1.57143 1.45518 1.57143 1.92857V11.0714C1.57143 11.5448 1.95518 11.9286 2.42857 11.9286H6.71429V8.21429H5.57143C5.41363 8.21429 5.28571 8.08634 5.28571 7.92857V5.92857C5.28571 5.7708 5.41363 5.64286 5.57143 5.64286H6.71429V4.21429C6.71429 2.95192 7.73766 1.92857 9 1.92857H11C11.1578 1.92857 11.2857 2.05649 11.2857 2.21429V4.21429C11.2857 4.37208 11.1578 4.5 11 4.5H10.1429C9.82726 4.5 9.57143 4.75584 9.57143 5.07143V5.64286H11C11.0897 5.64286 11.1741 5.68491 11.2281 5.75651C11.2821 5.82811 11.2994 5.92086 11.2747 6.00709L10.7033 8.00709C10.6682 8.12971 10.5561 8.21429 10.4286 8.21429H9.57143V11.9286H11.5714C12.0448 11.9286 12.4286 11.5448 12.4286 11.0714V1.92857C12.4286 1.45518 12.0448 1.07143 11.5714 1.07143H2.42857ZM1 1.92857C1 1.13959 1.63959 0.5 2.42857 0.5H11.5714C12.3604 0.5 13 1.13959 13 1.92857V11.0714C13 11.8604 12.3604 12.5 11.5714 12.5H9.28572C9.12794 12.5 9 12.3721 9 12.2143V7.92857C9 7.7708 9.12794 7.64286 9.28572 7.64286H10.213L10.6212 6.21429H9.28572C9.12794 6.21429 9 6.08634 9 5.92857V5.07143C9 4.44025 9.51166 3.92857 10.1429 3.92857H10.7143V2.5H9C8.0532 2.5 7.28571 3.26751 7.28571 4.21429V5.92857C7.28571 6.08634 7.15777 6.21429 7 6.21429H5.85714V7.64286H7C7.15777 7.64286 7.28571 7.7708 7.28571 7.92857V12.2143C7.28571 12.3721 7.15777 12.5 7 12.5H2.42857C1.63959 12.5 1 11.8604 1 11.0714V1.92857Z" fill="black" stroke="black" stroke-width="0.2"/>
</svg>
