<svg width="14" height="13" viewBox="0 0 14 13" fill="none" xmlns="http://www.w3.org/2000/svg">
<path d="M12.1885 11.3016C11.5265 11.701 10.8129 12.0007 10.0475 12.2004C9.28199 12.4001 8.44735 12.5 7.54386 12.5C6.64021 12.5 5.79137 12.3702 4.9971 12.1109C4.20284 11.8514 3.50918 11.4689 2.91653 10.9631C2.32372 10.4572 1.85602 9.83343 1.51366 9.0915C1.17114 8.34956 1 7.49359 1 6.52337C1 5.64141 1.16691 4.83077 1.50073 4.09146C1.83448 3.35214 2.28774 2.71667 2.86044 2.18481C3.43306 1.65302 4.09927 1.23924 4.85899 0.943529C5.61871 0.647893 6.42726 0.5 7.28487 0.5C7.78561 0.5 8.27334 0.545477 8.74814 0.636205C9.22303 0.727084 9.6719 0.861865 10.0949 1.04093C10.5179 1.21991 10.9078 1.44557 11.2647 1.71798C11.6215 1.99039 11.928 2.31075 12.1842 2.67906C12.4401 3.04752 12.6402 3.4625 12.7841 3.92424C12.928 4.38612 13 4.89446 13 5.44954C13 6.02028 12.9193 6.53514 12.7583 6.99425C12.5971 7.45336 12.3785 7.8452 12.1022 8.16938C11.826 8.49363 11.5051 8.74402 11.1396 8.92038C10.7741 9.09682 10.3871 9.18492 9.97844 9.18492C9.67908 9.18492 9.4288 9.14214 9.22742 9.05658C9.02588 8.97095 8.8691 8.85033 8.75692 8.69464C8.64466 8.53903 8.57413 8.35226 8.54533 8.13431C8.51645 7.91645 8.52817 7.6298 8.56855 7.36511M8.56855 7.36511C8.27501 7.96177 7.90505 8.44433 7.47054 8.72184C7.03586 8.99942 6.5597 9.13817 6.04173 9.13817C5.73663 9.13817 5.47478 9.0903 5.25609 8.99425C5.03731 8.89828 4.8546 8.76851 4.70788 8.60511C4.56107 8.44171 4.4532 8.24992 4.38411 8.02928C4.31501 7.80886 4.28047 7.57144 4.28047 7.31723C4.28047 7.02669 4.32211 6.73233 4.40565 6.43392C4.48903 6.13566 4.61134 5.85029 4.77258 5.57788C4.93367 5.30547 5.13218 5.05007 5.36826 4.81137C5.60419 4.57275 5.87179 4.36657 6.17115 4.19268C6.47034 4.01894 6.80137 3.88138 7.164 3.78024C7.52655 3.6791 7.91789 3.62845 8.33813 3.62845C8.57413 3.62845 8.81437 3.64793 9.05899 3.68681C9.30361 3.7257 9.51225 3.78406 9.68483 3.8619L8.56855 7.36511Z" stroke="black" stroke-width="0.8" stroke-miterlimit="1" stroke-linecap="round" stroke-linejoin="round"/>
</svg>
