<svg width="14" height="13" viewBox="0 0 14 13" fill="none" xmlns="http://www.w3.org/2000/svg">
<path d="M7.00147 0.500472H6.99888V0.5C3.69091 0.5 1 3.19165 1 6.49982C1 7.81195 1.42359 9.02853 2.14268 10.0165L1.39495 12.2453L3.70093 11.5087C4.64943 12.1363 5.78139 12.5 7.00147 12.5C10.3096 12.5 13 9.80847 13 6.49982C13 3.19165 10.3096 0.500472 7.00147 0.500472ZM10.4937 8.97245C10.3484 9.3815 9.77416 9.72081 9.31534 9.81872C9.00193 9.88599 8.59284 9.9396 7.21403 9.36713C5.45065 8.63737 4.31492 6.84561 4.22643 6.72945C4.14136 6.61245 3.51429 5.78055 3.51429 4.92002C3.51429 4.05878 3.9519 3.63935 4.12781 3.4598C4.27227 3.31135 4.51228 3.24466 4.7418 3.24466C4.81592 3.24466 4.88178 3.24796 4.94281 3.25138C5.11897 3.25904 5.20722 3.26917 5.32281 3.54804C5.46738 3.89713 5.82109 4.75767 5.86257 4.84532C5.90546 4.93404 5.94717 5.05386 5.88755 5.17026C5.83099 5.2902 5.78139 5.34298 5.69408 5.44548C5.60535 5.54798 5.52017 5.62539 5.4325 5.73507C5.35109 5.82968 5.26 5.93254 5.3624 6.10867C5.46408 6.28127 5.81732 6.85692 6.33528 7.31853C7.00642 7.91421 7.5489 8.10508 7.74295 8.1859C7.88741 8.24669 8.05955 8.23161 8.16607 8.11898C8.30016 7.97465 8.46535 7.73466 8.63466 7.49856C8.75567 7.32854 8.90602 7.30793 9.06532 7.36707C9.22744 7.42362 10.084 7.8473 10.2607 7.93566C10.4368 8.02331 10.553 8.06526 10.5954 8.14066C10.6376 8.21418 10.6376 8.56338 10.4937 8.97245Z" stroke="black" stroke-width="0.8"/>
</svg>
