<svg width="12" height="12" viewBox="0 0 12 12" fill="none" xmlns="http://www.w3.org/2000/svg">
<path d="M10.3926 10.4215H1.60766C0.721139 10.4215 0 9.69985 0 8.81379V3.18676C0 2.30024 0.721139 1.5791 1.60766 1.5791H10.3923C11.2784 1.5791 12 2.30024 12 3.18676V8.81379C12.0002 9.70007 11.2789 10.4215 10.3926 10.4215ZM1.60766 2.03844C0.974253 2.03844 0.459342 2.55335 0.459342 3.18676V8.81379C0.459342 9.44699 0.974253 9.96211 1.60766 9.96211H10.3923C11.0255 9.96211 11.5407 9.44699 11.5407 8.81379V3.18676C11.5407 2.55335 11.0255 2.03844 10.3923 2.03844H1.60766ZM8.28149 2.92954C8.8545 2.92954 9.3191 3.39392 9.3191 3.96715C9.3191 4.54038 8.85472 5.00501 8.28149 5.00501C7.70826 5.00501 7.24388 4.54042 7.24388 3.96715C7.24388 3.39389 7.70847 2.92954 8.28149 2.92954ZM9.72816 2.92954C10.3012 2.92954 10.766 3.39392 10.766 3.96715C10.766 4.54038 10.3014 5.00501 9.72816 5.00501C9.15493 5.00501 8.69055 4.54042 8.69055 3.96715C8.69055 3.39389 9.15514 2.92954 9.72816 2.92954ZM1.23444 7.74216H3.14732V8.43118H1.23444V7.74216ZM3.77387 7.74216H5.68699V8.43118H3.77387V7.74216ZM6.31279 7.74216H8.22635V8.43118H6.31279V7.74216ZM8.85222 7.74216H10.7658V8.43118H8.85222V7.74216ZM1.23444 2.92975H4.85054V3.61877H1.23444V2.92975ZM1.23444 4.29695H3.14778V4.98597H1.23444V4.29695Z" fill="black"/>
</svg>
