<svg width="12" height="12" viewBox="0 0 12 12" fill="none" xmlns="http://www.w3.org/2000/svg">
<g clip-path="url(#clip0_6354_1703)">
<path fill-rule="evenodd" clip-rule="evenodd" d="M11.2723 5.9998C11.2723 8.91171 8.91171 11.2723 5.9998 11.2723C3.08789 11.2723 0.727305 8.91171 0.727305 5.9998C0.727305 3.08789 3.08789 0.727305 5.9998 0.727305C7.5848 0.727305 9.00644 1.42668 9.97299 2.53367L8.07267 4.04384C7.55305 3.49336 6.81656 3.1498 5.9998 3.1498C4.4258 3.1498 3.1498 4.4258 3.1498 5.9998C3.1498 7.5738 4.4258 8.8498 5.9998 8.8498C7.5738 8.8498 8.8498 7.5738 8.8498 5.9998C8.8498 5.39629 8.66222 4.83654 8.34211 4.37577L10.2409 2.86679C10.889 3.74271 11.2723 4.8265 11.2723 5.9998ZM10.5758 2.60065C11.2819 3.54971 11.6998 4.72596 11.6998 5.9998C11.6998 9.1478 9.1478 11.6998 5.9998 11.6998C2.85178 11.6998 0.299805 9.1478 0.299805 5.9998C0.299805 2.85178 2.85178 0.299805 5.9998 0.299805C7.72035 0.299805 9.26288 1.06212 10.308 2.26743L10.4724 2.13674V1.36855C10.4724 1.2505 10.5681 1.1548 10.6862 1.1548C10.8042 1.1548 10.8999 1.2505 10.8999 1.36855V1.797L11.2462 1.52184C11.3386 1.44839 11.4731 1.46377 11.5465 1.55619C11.6199 1.64861 11.6046 1.78308 11.5122 1.85652L11.111 2.17533L11.4565 2.30926C11.5665 2.35193 11.6211 2.47575 11.5785 2.58582C11.5358 2.69589 11.412 2.75053 11.3019 2.70785L10.7232 2.4835L10.5758 2.60065ZM7.73654 4.31095C7.29644 3.85842 6.68095 3.5773 5.9998 3.5773C4.66189 3.5773 3.5773 4.66189 3.5773 5.9998C3.5773 7.33771 4.66189 8.4223 5.9998 8.4223C7.33771 8.4223 8.4223 7.33771 8.4223 5.9998C8.4223 5.49684 8.26903 5.02961 8.0066 4.64241L6.28458 6.01086C6.27876 6.16317 6.15348 6.2848 5.9998 6.2848C5.84243 6.2848 5.7148 6.15718 5.7148 5.9998C5.7148 5.8532 5.82544 5.73247 5.96783 5.71657L7.73654 4.31095Z" fill="black" stroke="black" stroke-width="0.4"/>
</g>
<defs>
<clipPath id="clip0_6354_1703">
<rect width="12" height="12" fill="white"/>
</clipPath>
</defs>
</svg>
