<svg width="14" height="13" viewBox="0 0 14 13" fill="none" xmlns="http://www.w3.org/2000/svg">
<path d="M11.5 6.75H8.5V7.25H11.5V6.75Z" fill="black" stroke="black" stroke-width="0.4"/>
<path d="M11.5 5.25H7V5.75H11.5V5.25Z" fill="black" stroke="black" stroke-width="0.4"/>
<path d="M12 1.25H2C1.44999 1.25 1 1.69999 1 2.25V8.75C1 9.29999 1.44999 9.75 2 9.75H3V11.75L4.24999 10.5L5.49997 11.75V9.75H12C12.55 9.75 13 9.29999 13 8.75V2.25C13 1.69999 12.55 1.25 12 1.25ZM5 10.55L4.24999 9.79996L3.49997 10.55V8.59999C3.74996 8.69999 3.99997 8.74997 4.24999 8.74997C4.5 8.74997 4.74999 8.69999 5 8.59999V10.55ZM4.24999 8.25C3.54999 8.25 3 7.70001 3 7.00001C3 6.30001 3.55001 5.75003 4.24999 5.75003C4.94996 5.75003 5.49997 6.30001 5.49997 7.00001C5.49997 7.70001 4.94999 8.25 4.24999 8.25ZM12.5 8.74997C12.5 9.04997 12.3 9.24997 12 9.24997H5.5V8.19999C5.8 7.89996 6 7.44997 6 6.99999C6 6.05 5.2 5.24997 4.24999 5.24997C3.29997 5.24997 2.49997 6.04997 2.49997 6.99999C2.49997 7.49999 2.69997 7.89999 2.99997 8.19999V9.24997H2C1.7 9.24997 1.5 8.99999 1.5 8.74997V2.25C1.5 1.95 1.7 1.75 2 1.75H12C12.3 1.75 12.5 1.99999 12.5 2.25V8.74997Z" fill="black" stroke="black" stroke-width="0.4"/>
<path d="M11.5 3.75H2.5V4.25H11.5V3.75Z" fill="black" stroke="black" stroke-width="0.4"/>
</svg>
