<svg width="37" height="37" viewBox="0 0 37 37" fill="none" xmlns="http://www.w3.org/2000/svg">
<path d="M22.2014 8.93639C23.651 9.21921 24.9832 9.92815 26.0275 10.9725C27.0719 12.0168 27.7808 13.349 28.0636 14.7986M22.2014 3C25.2131 3.33457 28.0214 4.68323 30.1654 6.82453C32.3095 8.96583 33.6616 11.7725 34 14.7837M32.5159 26.6268V31.0791C32.5176 31.4924 32.4329 31.9016 32.2673 32.2803C32.1017 32.659 31.8589 32.9989 31.5543 33.2784C31.2498 33.5578 30.8902 33.7705 30.4986 33.9029C30.1071 34.0353 29.6922 34.0845 29.2806 34.0473C24.7138 33.5511 20.327 31.9906 16.4728 29.4911C12.887 27.2126 9.84681 24.1724 7.56823 20.5866C5.06007 16.7148 3.49919 12.3068 3.01205 7.71943C2.97496 7.30903 3.02373 6.8954 3.15526 6.50488C3.28679 6.11436 3.49819 5.75551 3.77601 5.45117C4.05382 5.14683 4.39197 4.90367 4.76891 4.73717C5.14585 4.57067 5.55333 4.48449 5.9654 4.4841H10.4177C11.1379 4.47701 11.8362 4.73206 12.3823 5.20171C12.9284 5.67136 13.2851 6.32356 13.3859 7.03674C13.5738 8.46158 13.9223 9.86058 14.4248 11.2071C14.6244 11.7383 14.6676 12.3156 14.5493 12.8706C14.4309 13.4256 14.1559 13.935 13.7569 14.3385L11.8721 16.2233C13.9848 19.9388 17.0612 23.0152 20.7767 25.1279L22.6615 23.2431C23.065 22.8441 23.5744 22.5691 24.1294 22.4507C24.6844 22.3324 25.2617 22.3756 25.7929 22.5752C27.1394 23.0777 28.5384 23.4262 29.9633 23.6141C30.6842 23.7158 31.3426 24.0789 31.8132 24.6344C32.2839 25.1899 32.534 25.899 32.5159 26.6268Z" stroke="black" stroke-width="4.88943" stroke-linecap="round" stroke-linejoin="round"/>
</svg>
