<svg width="40" height="40" viewBox="0 0 40 40" fill="none" xmlns="http://www.w3.org/2000/svg">
<path d="M34.7162 8.02414L31.7038 5.01154C31.0532 4.3612 30.171 3.99585 29.2512 3.99585C28.3313 3.99585 27.4491 4.3612 26.7986 5.01154L26.2932 5.51694L23.9564 7.85374L7.11998 24.6891L7.04758 24.7615L5.54238 30.2705C5.11411 31.8368 4.68664 33.4039 4.25998 34.9719H3.87598V35.7427H21.0416V34.9719H6.53618C7.40004 34.7369 8.26371 34.5017 9.12718 34.2663L9.13718 34.2635C11.048 33.7455 12.958 33.2265 14.8672 32.7063L14.966 32.6793L31.874 15.7713L34.2108 13.4343L34.7162 12.9289C35.3661 12.2782 35.7312 11.3961 35.7312 10.4764C35.7312 9.55674 35.3661 8.67485 34.7162 8.02414ZM7.59298 25.6927L14.0342 32.1339C12.5314 32.5427 11.0284 32.9514 9.52538 33.3599C9.61391 32.9159 9.70264 32.4719 9.79158 32.0279L10.0452 30.7599L9.43778 30.9329C9.07871 31.0353 8.71984 31.1377 8.36118 31.2401L8.82698 29.6447L6.43718 29.9247L7.59298 25.6927ZM6.21818 30.7249L7.76098 30.5449L7.22918 32.3673L7.90198 32.1735C8.28118 32.0643 8.66118 31.9555 9.04198 31.8471L9.03598 31.8763C8.92198 32.4465 8.80818 33.0162 8.69458 33.5855C7.67898 33.863 6.66324 34.1397 5.64738 34.4155L5.17538 34.5437C5.52258 33.2704 5.87018 31.9975 6.21818 30.7249ZM14.7728 31.7827L7.94518 24.9549L24.5014 8.39874L31.329 15.2265L14.7728 31.7827ZM31.874 14.6813L25.0464 7.85374L26.2932 6.60694L33.12 13.4345L31.874 14.6813ZM34.1714 12.3841L33.6658 12.8895L26.8382 6.06194L27.3436 5.55634C27.8496 5.05067 28.5358 4.76662 29.2512 4.76662C29.9666 4.76662 30.6527 5.05067 31.1588 5.55634L34.1714 8.56914C34.6767 9.07535 34.9605 9.76138 34.9605 10.4766C34.9605 11.1919 34.6767 11.8779 34.1714 12.3841Z" fill="
#4E4E4E"/>
</svg>
